<svg width="653" height="653" viewBox="0 0 653 653" fill="none" xmlns="http://www.w3.org/2000/svg">
<path d="M385.488 278.186C361.257 278.186 342.695 271.263 326.998 256C311.303 271.263 292.741 278.186 268.513 278.186C268.513 317.935 260.288 374.875 326.997 398C393.712 374.876 385.488 317.936 385.488 278.186ZM322.153 348.133L302.667 328.645L311.392 319.921L322.153 330.685L342.606 310.231L351.33 318.955L322.153 348.133Z" fill="#5E52EF"/>
<path opacity="0.3" d="M326.5 465C402.991 465 465 402.991 465 326.5C465 250.009 402.991 188 326.5 188C250.009 188 188 250.009 188 326.5C188 402.991 250.009 465 326.5 465Z" stroke="#5E52EF" stroke-width="5" stroke-dasharray="12 12"/>
<path opacity="0.1" d="M326.5 650C505.164 650 650 505.164 650 326.5C650 147.836 505.164 3 326.5 3C147.836 3 3 147.836 3 326.5C3 505.164 147.836 650 326.5 650Z" stroke="#5E52EF" stroke-width="5" stroke-dasharray="12 12"/>
<path opacity="0.2" d="M326.5 555C452.697 555 555 452.697 555 326.5C555 200.303 452.697 98 326.5 98C200.303 98 98 200.303 98 326.5C98 452.697 200.303 555 326.5 555Z" stroke="#5E52EF" stroke-width="5" stroke-dasharray="12 12"/>
</svg>
