<svg width="169" height="28" viewBox="0 0 169 28" fill="none" xmlns="http://www.w3.org/2000/svg">
<rect x="2" y="1" width="164" height="26" fill="white"/>
<path fill-rule="evenodd" clip-rule="evenodd" d="M2 0C0.895431 0 0 0.895431 0 2V26C0 27.1046 0.895431 28 2 28H167C168.105 28 169 27.1046 169 26V2C169 0.895431 168.105 0 167 0H2ZM24.439 25V2.6H16.887V10.536H9.911V2.6H2.359V25H9.911V16.744H16.887V25H24.439ZM46.4375 17.928C46.5015 16.904 46.5335 16.3387 46.5335 16.232C46.5335 14.3333 46.0962 12.7013 45.2215 11.336C44.3682 9.97067 43.2055 8.936 41.7335 8.232C40.2828 7.528 38.6722 7.176 36.9015 7.176C35.0242 7.176 33.3282 7.56 31.8135 8.328C30.3202 9.096 29.1362 10.1733 28.2615 11.56C27.4082 12.9253 26.9815 14.4827 26.9815 16.232C26.9815 17.96 27.4188 19.5173 28.2935 20.904C29.1682 22.2907 30.4055 23.3787 32.0055 24.168C33.6055 24.936 35.4615 25.32 37.5735 25.32C40.9655 25.32 43.5148 24.3813 45.2215 22.504L41.4455 18.696C40.8268 19.1653 40.2508 19.496 39.7175 19.688C39.2055 19.88 38.5655 19.976 37.7975 19.976C36.9015 19.976 36.1548 19.8053 35.5575 19.464C34.9602 19.1013 34.5335 18.5893 34.2775 17.928H46.4375ZM35.1095 12.712C35.6002 12.3067 36.2188 12.104 36.9655 12.104C37.7122 12.104 38.3308 12.3173 38.8215 12.744C39.3122 13.1493 39.6322 13.7147 39.7815 14.44H34.1495C34.2988 13.6933 34.6188 13.1173 35.1095 12.712ZM59.8968 13.128H65.2408V7.496H47.3527V13.128H52.6968V25H59.8968V13.128ZM70.472 24.168C72.0293 24.936 73.7787 25.32 75.72 25.32C77.6827 25.32 79.432 24.936 80.968 24.168C82.5253 23.3787 83.7307 22.3013 84.584 20.936C85.4587 19.5493 85.896 17.9813 85.896 16.232C85.896 14.4827 85.4587 12.9253 84.584 11.56C83.7307 10.1733 82.5253 9.096 80.968 8.328C79.432 7.56 77.6827 7.176 75.72 7.176C73.7787 7.176 72.0293 7.56 70.472 8.328C68.936 9.096 67.7307 10.1733 66.856 11.56C65.9813 12.9253 65.544 14.4827 65.544 16.232C65.544 17.9813 65.9813 19.5493 66.856 20.936C67.7307 22.3013 68.936 23.3787 70.472 24.168ZM77.768 18.792C77.2347 19.3893 76.552 19.688 75.72 19.688C74.888 19.688 74.2053 19.3893 73.672 18.792C73.1387 18.1733 72.872 17.32 72.872 16.232C72.872 15.144 73.1387 14.3013 73.672 13.704C74.2053 13.1067 74.888 12.808 75.72 12.808C76.552 12.808 77.2347 13.1067 77.768 13.704C78.3013 14.3013 78.568 15.144 78.568 16.232C78.568 17.32 78.3013 18.1733 77.768 18.792ZM98.7405 13.128H104.085V7.496H86.1965V13.128H91.5405V25H98.7405V13.128ZM123.844 17.928C123.908 16.904 123.94 16.3387 123.94 16.232C123.94 14.3333 123.502 12.7013 122.628 11.336C121.774 9.97067 120.612 8.936 119.14 8.232C117.689 7.528 116.078 7.176 114.308 7.176C112.43 7.176 110.734 7.56 109.22 8.328C107.726 9.096 106.542 10.1733 105.668 11.56C104.814 12.9253 104.388 14.4827 104.388 16.232C104.388 17.96 104.825 19.5173 105.7 20.904C106.574 22.2907 107.812 23.3787 109.412 24.168C111.012 24.936 112.868 25.32 114.98 25.32C118.372 25.32 120.921 24.3813 122.628 22.504L118.852 18.696C118.233 19.1653 117.657 19.496 117.124 19.688C116.612 19.88 115.972 19.976 115.204 19.976C114.308 19.976 113.561 19.8053 112.964 19.464C112.366 19.1013 111.94 18.5893 111.684 17.928H123.844ZM112.516 12.712C113.006 12.3067 113.625 12.104 114.372 12.104C115.118 12.104 115.737 12.3173 116.228 12.744C116.718 13.1493 117.038 13.7147 117.188 14.44H111.556C111.705 13.6933 112.025 13.1173 112.516 12.712ZM133.772 19.176H135.148L138.636 25H147.148L141.164 15.88L146.796 7.496H139.18L135.34 13.64H133.772V7.496H126.54V25H133.772V19.176ZM162.942 9.256C161.321 7.86933 158.974 7.176 155.902 7.176C154.494 7.176 153.075 7.35733 151.646 7.72C150.238 8.06133 149.033 8.54133 148.03 9.16L150.334 13.928C150.91 13.5013 151.603 13.1707 152.414 12.936C153.225 12.68 154.025 12.552 154.814 12.552C156.777 12.552 157.875 13.2347 158.11 14.6H155.198C152.51 14.6 150.505 15.048 149.182 15.944C147.859 16.84 147.198 18.152 147.198 19.88C147.198 20.904 147.443 21.832 147.934 22.664C148.446 23.4747 149.182 24.1253 150.142 24.616C151.123 25.0853 152.307 25.32 153.694 25.32C156.169 25.32 157.822 24.4453 158.654 22.696V25H165.374V15.592C165.374 12.7333 164.563 10.6213 162.942 9.256ZM157.246 20.552C156.841 20.8293 156.382 20.968 155.87 20.968C155.337 20.968 154.91 20.84 154.59 20.584C154.291 20.3067 154.142 19.9653 154.142 19.56C154.142 18.5787 154.878 18.088 156.35 18.088H158.142V19.304C157.95 19.8587 157.651 20.2747 157.246 20.552Z" fill="#5E52EF"/>
</svg>
